<svg xmlns="http://www.w3.org/2000/svg" width="700" height="320" viewBox="0 0 700 320" font-family="system-ui,-apple-system,'Segoe UI',sans-serif" role="img" aria-label="Annualised return as each trading cost is applied">
<rect width="700" height="320" fill="#fcfcfb"/>
<text x="24" y="30" font-size="15" font-weight="600" fill="#0b0b0b">What each cost takes</text>
<text x="24" y="50" font-size="12" fill="#52514e">Annualised return, daily mean reversion on AAPL, charges added one at a time</text>
<text x="118" y="98.0" font-size="12.5" fill="#0b0b0b" text-anchor="end">no costs</text>
<rect x="255.2" y="84.0" width="257.0" height="20" rx="4" fill="#2a78d6"/>
<rect x="255.2" y="84.0" width="4" height="20" fill="#2a78d6"/>
<text x="520.2" y="98.0" font-size="12" fill="#0b0b0b" text-anchor="start">+8.4%</text>
<text x="118" y="138.0" font-size="12.5" fill="#0b0b0b" text-anchor="end">+ commission</text>
<rect x="255.2" y="124.0" width="215.4" height="20" rx="4" fill="#2a78d6"/>
<rect x="255.2" y="124.0" width="4" height="20" fill="#2a78d6"/>
<text x="478.6" y="138.0" font-size="12" fill="#0b0b0b" text-anchor="start">+7.0%</text>
<text x="118" y="178.0" font-size="12.5" fill="#0b0b0b" text-anchor="end">+ spread</text>
<rect x="255.2" y="164.0" width="133.6" height="20" rx="4" fill="#2a78d6"/>
<rect x="255.2" y="164.0" width="4" height="20" fill="#2a78d6"/>
<text x="396.8" y="178.0" font-size="12" fill="#0b0b0b" text-anchor="start">+4.4%</text>
<text x="118" y="218.0" font-size="12.5" fill="#0b0b0b" text-anchor="end">+ slippage</text>
<rect x="255.2" y="204.0" width="53.9" height="20" rx="4" fill="#2a78d6"/>
<rect x="255.2" y="204.0" width="4" height="20" fill="#2a78d6"/>
<text x="317.1" y="218.0" font-size="12" fill="#0b0b0b" text-anchor="start">+1.8%</text>
<text x="118" y="258.0" font-size="12.5" fill="#0b0b0b" text-anchor="end">+ impact</text>
<rect x="193.2" y="244.0" width="62.0" height="20" rx="4" fill="#e34948"/>
<rect x="251.2" y="244.0" width="4" height="20" fill="#e34948"/>
<text x="185.2" y="258.0" font-size="12" fill="#0b0b0b" text-anchor="end">-2.0%</text>
<line x1="255.2" y1="66" x2="255.2" y2="274" stroke="#c3c2b7" stroke-width="2"/>
</svg>